<mxfile host="app.diagrams.net" agent="Mozilla/5.0 (Windows NT 10.0; Win64; x64) AppleWebKit/537.36 (KHTML, like Gecko) Chrome/139.0.0.0 Safari/537.36" version="28.2.5">
  <diagram name="Trang-1" id="z0c1zpeYFxC1OSp6KzUy">
    <mxGraphModel dx="2251" dy="813" grid="1" gridSize="10" guides="1" tooltips="1" connect="1" arrows="1" fold="1" page="1" pageScale="1" pageWidth="827" pageHeight="1169" math="0" shadow="0">
      <root>
        <mxCell id="0" />
        <mxCell id="1" parent="0" />
        <mxCell id="xAghRe8UTxH26ZjEeff6-106" value="Chuyển hướng đến trang thanh toán" style="html=1;verticalAlign=bottom;endArrow=open;dashed=1;endSize=8;curved=0;rounded=0;" edge="1" parent="1" source="xAghRe8UTxH26ZjEeff6-89">
          <mxGeometry relative="1" as="geometry">
            <mxPoint x="395.81" y="1760" as="sourcePoint" />
            <mxPoint x="175.81" y="1760" as="targetPoint" />
          </mxGeometry>
        </mxCell>
        <mxCell id="xAghRe8UTxH26ZjEeff6-103" value="Tạo URL thanh toán(có mã xác thực)" style="html=1;verticalAlign=bottom;endArrow=block;curved=0;rounded=0;exitX=1.097;exitY=0.621;exitDx=0;exitDy=0;exitPerimeter=0;" edge="1" parent="1">
          <mxGeometry width="80" relative="1" as="geometry">
            <mxPoint x="653.0399999999998" y="1672.6800000000003" as="sourcePoint" />
            <mxPoint x="866.5699999999996" y="1672.6800000000003" as="targetPoint" />
          </mxGeometry>
        </mxCell>
        <mxCell id="xAghRe8UTxH26ZjEeff6-100" value="" style="curved=1;endArrow=classic;html=1;rounded=0;" edge="1" parent="1" source="xAghRe8UTxH26ZjEeff6-101">
          <mxGeometry width="50" height="50" relative="1" as="geometry">
            <mxPoint x="660.01" y="1650" as="sourcePoint" />
            <mxPoint x="655" y="1660" as="targetPoint" />
            <Array as="points">
              <mxPoint x="660" y="1640" />
              <mxPoint x="670" y="1650" />
              <mxPoint x="670" y="1660" />
            </Array>
          </mxGeometry>
        </mxCell>
        <mxCell id="xAghRe8UTxH26ZjEeff6-101" value="Tạo mã&amp;nbsp;&lt;div&gt;xác thực&lt;/div&gt;" style="text;html=1;align=center;verticalAlign=middle;resizable=0;points=[];autosize=1;strokeColor=none;fillColor=none;fontSize=11;" vertex="1" parent="1">
          <mxGeometry x="646.57" y="1610" width="70" height="40" as="geometry" />
        </mxCell>
        <mxCell id="xAghRe8UTxH26ZjEeff6-99" value="Yêu cầu liên kêt thanh toán" style="html=1;verticalAlign=bottom;endArrow=block;curved=0;rounded=0;" edge="1" parent="1">
          <mxGeometry width="80" relative="1" as="geometry">
            <mxPoint x="420" y="1630" as="sourcePoint" />
            <mxPoint x="646.5690909090907" y="1630" as="targetPoint" />
          </mxGeometry>
        </mxCell>
        <mxCell id="xAghRe8UTxH26ZjEeff6-97" value="Hiển thị giao diện thanh toán" style="html=1;verticalAlign=bottom;endArrow=open;dashed=1;endSize=8;curved=0;rounded=0;" edge="1" parent="1">
          <mxGeometry relative="1" as="geometry">
            <mxPoint x="425" y="1560" as="sourcePoint" />
            <mxPoint x="176.09090909090924" y="1560" as="targetPoint" />
          </mxGeometry>
        </mxCell>
        <mxCell id="xAghRe8UTxH26ZjEeff6-98" value="Chọn &quot;Thanh toán ngay&quot;" style="html=1;verticalAlign=bottom;endArrow=block;curved=0;rounded=0;" edge="1" parent="1" target="xAghRe8UTxH26ZjEeff6-128">
          <mxGeometry width="80" relative="1" as="geometry">
            <mxPoint x="170" y="1600" as="sourcePoint" />
            <mxPoint x="418.90909090909076" y="1600" as="targetPoint" />
          </mxGeometry>
        </mxCell>
        <mxCell id="xAghRe8UTxH26ZjEeff6-81" value="" style="rounded=1;whiteSpace=wrap;html=1;fillColor=none;strokeColor=#FFCF26;strokeWidth=4;fontSize=20;" vertex="1" parent="1">
          <mxGeometry x="0.410000000000025" y="860" width="1200" height="410" as="geometry" />
        </mxCell>
        <mxCell id="xAghRe8UTxH26ZjEeff6-6" value="-Hiển thị menu&lt;div&gt;-Đặt món&lt;/div&gt;&lt;div&gt;-Theo dõi đơn hàng&lt;/div&gt;&lt;div&gt;&lt;br&gt;&lt;/div&gt;" style="rounded=1;whiteSpace=wrap;html=1;fontSize=20;" vertex="1" parent="1">
          <mxGeometry x="-30" y="620" width="180" height="110" as="geometry" />
        </mxCell>
        <mxCell id="xAghRe8UTxH26ZjEeff6-7" value="" style="image;aspect=fixed;perimeter=ellipsePerimeter;html=1;align=center;shadow=0;dashed=0;spacingTop=3;image=img/lib/active_directory/databases.svg;fontSize=20;" vertex="1" parent="1">
          <mxGeometry x="540" y="585" width="60.2" height="59" as="geometry" />
        </mxCell>
        <mxCell id="xAghRe8UTxH26ZjEeff6-14" value="User&amp;nbsp;" style="outlineConnect=0;dashed=0;verticalLabelPosition=bottom;verticalAlign=top;align=center;html=1;shape=mxgraph.aws3.user;fillColor=#D2D3D3;gradientColor=none;fontSize=20;" vertex="1" parent="1">
          <mxGeometry y="427" width="45" height="63" as="geometry" />
        </mxCell>
        <mxCell id="xAghRe8UTxH26ZjEeff6-19" value="" style="curved=1;endArrow=classic;html=1;rounded=0;entryX=0;entryY=0.5;entryDx=0;entryDy=0;entryPerimeter=0;startArrow=classic;startFill=1;fontSize=20;" edge="1" parent="1">
          <mxGeometry width="50" height="50" relative="1" as="geometry">
            <mxPoint x="100" y="520" as="sourcePoint" />
            <mxPoint x="250" y="614" as="targetPoint" />
            <Array as="points">
              <mxPoint x="140" y="600" />
            </Array>
          </mxGeometry>
        </mxCell>
        <mxCell id="xAghRe8UTxH26ZjEeff6-20" value="" style="endArrow=classic;startArrow=classic;html=1;rounded=0;fontSize=20;" edge="1" parent="1">
          <mxGeometry width="50" height="50" relative="1" as="geometry">
            <mxPoint x="390" y="620" as="sourcePoint" />
            <mxPoint x="530" y="620" as="targetPoint" />
          </mxGeometry>
        </mxCell>
        <mxCell id="xAghRe8UTxH26ZjEeff6-21" value="" style="curved=1;endArrow=classic;html=1;rounded=0;fontSize=20;" edge="1" parent="1">
          <mxGeometry width="50" height="50" relative="1" as="geometry">
            <mxPoint x="610" y="460" as="sourcePoint" />
            <mxPoint x="330" y="570" as="targetPoint" />
            <Array as="points">
              <mxPoint x="510" y="470" />
              <mxPoint x="440" y="500" />
            </Array>
          </mxGeometry>
        </mxCell>
        <mxCell id="xAghRe8UTxH26ZjEeff6-23" value="Functionalities" style="text;html=1;align=center;verticalAlign=middle;resizable=0;points=[];autosize=1;strokeColor=none;fillColor=none;fontSize=20;" vertex="1" parent="1">
          <mxGeometry x="-15" y="580" width="150" height="40" as="geometry" />
        </mxCell>
        <mxCell id="xAghRe8UTxH26ZjEeff6-24" value="mongoDB" style="text;html=1;align=center;verticalAlign=middle;resizable=0;points=[];autosize=1;strokeColor=none;fillColor=none;fontSize=20;" vertex="1" parent="1">
          <mxGeometry x="515" y="633" width="110" height="40" as="geometry" />
        </mxCell>
        <mxCell id="xAghRe8UTxH26ZjEeff6-25" value="Web App" style="sketch=0;pointerEvents=1;shadow=0;dashed=0;html=1;strokeColor=none;fillColor=#505050;labelPosition=center;verticalLabelPosition=bottom;verticalAlign=top;outlineConnect=0;align=center;shape=mxgraph.office.devices.laptop;fontSize=20;" vertex="1" parent="1">
          <mxGeometry x="60" y="427" width="80" height="70" as="geometry" />
        </mxCell>
        <mxCell id="xAghRe8UTxH26ZjEeff6-29" value="Backend" style="outlineConnect=0;dashed=0;verticalLabelPosition=bottom;verticalAlign=top;align=center;html=1;shape=mxgraph.aws3.internet_2;fillColor=#D2D3D3;gradientColor=none;fontSize=20;" vertex="1" parent="1">
          <mxGeometry x="280" y="582.5" width="90.25" height="61.5" as="geometry" />
        </mxCell>
        <mxCell id="xAghRe8UTxH26ZjEeff6-31" value="Admin" style="sketch=0;pointerEvents=1;shadow=0;dashed=0;html=1;strokeColor=none;labelPosition=center;verticalLabelPosition=bottom;verticalAlign=top;align=center;fillColor=#515151;shape=mxgraph.mscae.system_center.admin_console;fontSize=20;" vertex="1" parent="1">
          <mxGeometry x="630" y="430.25" width="80" height="56.5" as="geometry" />
        </mxCell>
        <mxCell id="xAghRe8UTxH26ZjEeff6-34" value="" style="curved=1;endArrow=classic;html=1;rounded=0;fontSize=20;" edge="1" parent="1">
          <mxGeometry width="50" height="50" relative="1" as="geometry">
            <mxPoint x="100" y="410" as="sourcePoint" />
            <mxPoint x="300" y="440" as="targetPoint" />
            <Array as="points">
              <mxPoint x="240" y="390" />
            </Array>
          </mxGeometry>
        </mxCell>
        <mxCell id="xAghRe8UTxH26ZjEeff6-35" value="Order Managerment System&lt;div&gt;&lt;br&gt;&lt;/div&gt;" style="sketch=0;points=[[0,0,0],[0.25,0,0],[0.5,0,0],[0.75,0,0],[1,0,0],[0,1,0],[0.25,1,0],[0.5,1,0],[0.75,1,0],[1,1,0],[0,0.25,0],[0,0.5,0],[0,0.75,0],[1,0.25,0],[1,0.5,0],[1,0.75,0]];points=[[0,0,0],[0.25,0,0],[0.5,0,0],[0.75,0,0],[1,0,0],[0,1,0],[0.25,1,0],[0.5,1,0],[0.75,1,0],[1,1,0],[0,0.25,0],[0,0.5,0],[0,0.75,0],[1,0.25,0],[1,0.5,0],[1,0.75,0]];outlineConnect=0;fontColor=#232F3E;fillColor=#E7157B;strokeColor=#ffffff;dashed=0;verticalLabelPosition=bottom;verticalAlign=top;align=center;html=1;fontSize=20;fontStyle=0;aspect=fixed;shape=mxgraph.aws4.resourceIcon;resIcon=mxgraph.aws4.systems_manager_incident_manager;" vertex="1" parent="1">
          <mxGeometry x="330" y="270" width="78" height="78" as="geometry" />
        </mxCell>
        <mxCell id="xAghRe8UTxH26ZjEeff6-38" value="" style="curved=1;endArrow=classic;html=1;rounded=0;fontSize=20;" edge="1" parent="1">
          <mxGeometry width="50" height="50" relative="1" as="geometry">
            <mxPoint x="650" y="420" as="sourcePoint" />
            <mxPoint x="430" y="320" as="targetPoint" />
            <Array as="points">
              <mxPoint x="530" y="370" />
            </Array>
          </mxGeometry>
        </mxCell>
        <mxCell id="xAghRe8UTxH26ZjEeff6-39" value="" style="endArrow=classic;startArrow=classic;html=1;rounded=0;fontSize=20;" edge="1" parent="1">
          <mxGeometry width="50" height="50" relative="1" as="geometry">
            <mxPoint x="410" y="440" as="sourcePoint" />
            <mxPoint x="620" y="450" as="targetPoint" />
          </mxGeometry>
        </mxCell>
        <mxCell id="xAghRe8UTxH26ZjEeff6-41" value="" style="curved=1;endArrow=classic;html=1;rounded=0;fontSize=20;" edge="1" parent="1">
          <mxGeometry width="50" height="50" relative="1" as="geometry">
            <mxPoint x="30" y="410" as="sourcePoint" />
            <mxPoint x="320" y="300" as="targetPoint" />
            <Array as="points">
              <mxPoint x="140" y="330" />
            </Array>
          </mxGeometry>
        </mxCell>
        <mxCell id="xAghRe8UTxH26ZjEeff6-42" value="Đọc//Ghi" style="text;html=1;align=center;verticalAlign=middle;resizable=0;points=[];autosize=1;strokeColor=none;fillColor=none;fontSize=20;" vertex="1" parent="1">
          <mxGeometry x="410" y="593" width="100" height="40" as="geometry" />
        </mxCell>
        <mxCell id="xAghRe8UTxH26ZjEeff6-47" value="User&amp;nbsp;" style="outlineConnect=0;dashed=0;verticalLabelPosition=bottom;verticalAlign=top;align=center;html=1;shape=mxgraph.aws3.user;fillColor=#D2D3D3;gradientColor=none;fontSize=20;" vertex="1" parent="1">
          <mxGeometry x="65" y="1023.5" width="45" height="63" as="geometry" />
        </mxCell>
        <mxCell id="xAghRe8UTxH26ZjEeff6-48" value="Web App" style="sketch=0;pointerEvents=1;shadow=0;dashed=0;html=1;strokeColor=none;fillColor=#505050;labelPosition=center;verticalLabelPosition=bottom;verticalAlign=top;outlineConnect=0;align=center;shape=mxgraph.office.devices.laptop;fontSize=20;" vertex="1" parent="1">
          <mxGeometry x="125" y="1023.5" width="80" height="70" as="geometry" />
        </mxCell>
        <mxCell id="xAghRe8UTxH26ZjEeff6-50" value="" style="endArrow=classic;html=1;rounded=0;fontSize=20;" edge="1" parent="1">
          <mxGeometry width="50" height="50" relative="1" as="geometry">
            <mxPoint x="210" y="1057.97" as="sourcePoint" />
            <mxPoint x="330" y="1057.97" as="targetPoint" />
          </mxGeometry>
        </mxCell>
        <mxCell id="xAghRe8UTxH26ZjEeff6-54" value="Authorization&lt;br&gt;service" style="sketch=0;verticalLabelPosition=bottom;sketch=0;aspect=fixed;html=1;verticalAlign=top;strokeColor=none;fillColor=#000000;align=center;outlineConnect=0;pointerEvents=1;shape=mxgraph.citrix2.mobile;fontSize=20;" vertex="1" parent="1">
          <mxGeometry x="345" y="410" width="33.84" height="67" as="geometry" />
        </mxCell>
        <mxCell id="xAghRe8UTxH26ZjEeff6-55" value="" style="sketch=0;pointerEvents=1;shadow=0;dashed=0;html=1;strokeColor=none;fillColor=#505050;labelPosition=center;verticalLabelPosition=bottom;verticalAlign=top;outlineConnect=0;align=center;shape=mxgraph.office.security.key_permissions;direction=west;fontSize=20;" vertex="1" parent="1">
          <mxGeometry x="340" y="430" width="12" height="29.09" as="geometry" />
        </mxCell>
        <mxCell id="xAghRe8UTxH26ZjEeff6-56" value="" style="sketch=0;pointerEvents=1;shadow=0;dashed=0;html=1;strokeColor=none;fillColor=#505050;labelPosition=center;verticalLabelPosition=bottom;verticalAlign=top;outlineConnect=0;align=center;shape=mxgraph.office.security.lock_protected;fontSize=20;" vertex="1" parent="1">
          <mxGeometry x="370.25" y="420" width="20" height="19" as="geometry" />
        </mxCell>
        <mxCell id="xAghRe8UTxH26ZjEeff6-57" value="" style="sketch=0;outlineConnect=0;fontColor=#232F3E;gradientColor=none;fillColor=#232F3D;strokeColor=none;dashed=0;verticalLabelPosition=bottom;verticalAlign=top;align=center;html=1;fontSize=20;fontStyle=0;aspect=fixed;pointerEvents=1;shape=mxgraph.aws4.shield2;" vertex="1" parent="1">
          <mxGeometry x="370.25" y="442.09" width="17" height="17" as="geometry" />
        </mxCell>
        <mxCell id="xAghRe8UTxH26ZjEeff6-58" value="" style="endArrow=none;dashed=1;html=1;rounded=0;fontSize=20;" edge="1" parent="1" source="xAghRe8UTxH26ZjEeff6-57" target="xAghRe8UTxH26ZjEeff6-56">
          <mxGeometry width="50" height="50" relative="1" as="geometry">
            <mxPoint x="250" y="480" as="sourcePoint" />
            <mxPoint x="370" y="430" as="targetPoint" />
            <Array as="points">
              <mxPoint x="360" y="450" />
              <mxPoint x="360" y="430" />
            </Array>
          </mxGeometry>
        </mxCell>
        <mxCell id="xAghRe8UTxH26ZjEeff6-59" value="Authorization&lt;br&gt;service" style="sketch=0;verticalLabelPosition=bottom;sketch=0;aspect=fixed;html=1;verticalAlign=top;strokeColor=none;fillColor=#000000;align=center;outlineConnect=0;pointerEvents=1;shape=mxgraph.citrix2.mobile;fontSize=20;" vertex="1" parent="1">
          <mxGeometry x="350.9950248756219" y="1020" width="38.89074626865672" height="77" as="geometry" />
        </mxCell>
        <mxCell id="xAghRe8UTxH26ZjEeff6-60" value="" style="sketch=0;pointerEvents=1;shadow=0;dashed=0;html=1;strokeColor=none;fillColor=#505050;labelPosition=center;verticalLabelPosition=bottom;verticalAlign=top;outlineConnect=0;align=center;shape=mxgraph.office.security.key_permissions;direction=west;fontSize=20;" vertex="1" parent="1">
          <mxGeometry x="345" y="1042.9850746268658" width="14.388059701492537" height="33.43179104477612" as="geometry" />
        </mxCell>
        <mxCell id="xAghRe8UTxH26ZjEeff6-61" value="" style="sketch=0;pointerEvents=1;shadow=0;dashed=0;html=1;strokeColor=none;fillColor=#505050;labelPosition=center;verticalLabelPosition=bottom;verticalAlign=top;outlineConnect=0;align=center;shape=mxgraph.office.security.lock_protected;fontSize=20;" vertex="1" parent="1">
          <mxGeometry x="381.27" y="1031.49" width="13.73" height="21.84" as="geometry" />
        </mxCell>
        <mxCell id="xAghRe8UTxH26ZjEeff6-142" value="" style="edgeStyle=orthogonalEdgeStyle;rounded=0;orthogonalLoop=1;jettySize=auto;html=1;fontSize=20;" edge="1" parent="1" source="xAghRe8UTxH26ZjEeff6-62" target="xAghRe8UTxH26ZjEeff6-86">
          <mxGeometry relative="1" as="geometry" />
        </mxCell>
        <mxCell id="xAghRe8UTxH26ZjEeff6-62" value="" style="sketch=0;outlineConnect=0;fontColor=#232F3E;gradientColor=none;fillColor=#232F3D;strokeColor=none;dashed=0;verticalLabelPosition=bottom;verticalAlign=top;align=center;html=1;fontSize=20;fontStyle=0;aspect=fixed;pointerEvents=1;shape=mxgraph.aws4.shield2;" vertex="1" parent="1">
          <mxGeometry x="381.2699004975124" y="1056.879552238806" width="19.53731343283582" height="19.53731343283582" as="geometry" />
        </mxCell>
        <mxCell id="xAghRe8UTxH26ZjEeff6-63" value="" style="endArrow=none;dashed=1;html=1;rounded=0;fontSize=20;" edge="1" parent="1" source="xAghRe8UTxH26ZjEeff6-62" target="xAghRe8UTxH26ZjEeff6-61">
          <mxGeometry width="50" height="50" relative="1" as="geometry">
            <mxPoint x="237.08955223880596" y="1100.44776119403" as="sourcePoint" />
            <mxPoint x="380.97014925373134" y="1042.9850746268658" as="targetPoint" />
            <Array as="points">
              <mxPoint x="368.9800995024876" y="1065.9701492537315" />
              <mxPoint x="368.9800995024876" y="1042.9850746268658" />
            </Array>
          </mxGeometry>
        </mxCell>
        <mxCell id="xAghRe8UTxH26ZjEeff6-78" value="" style="edgeStyle=orthogonalEdgeStyle;rounded=0;orthogonalLoop=1;jettySize=auto;html=1;fontSize=20;" edge="1" parent="1" source="xAghRe8UTxH26ZjEeff6-68" target="xAghRe8UTxH26ZjEeff6-77">
          <mxGeometry relative="1" as="geometry" />
        </mxCell>
        <mxCell id="xAghRe8UTxH26ZjEeff6-68" value="Admin dashboard" style="shape=image;html=1;verticalAlign=top;verticalLabelPosition=bottom;labelBackgroundColor=#ffffff;imageAspect=0;aspect=fixed;image=https://icons.diagrams.net/icon-cache1/Computer_and_Web-2849/Dashboard-1346.svg;fontSize=20;" vertex="1" parent="1">
          <mxGeometry x="670" y="926.57" width="173.15" height="173.15" as="geometry" />
        </mxCell>
        <mxCell id="xAghRe8UTxH26ZjEeff6-80" value="" style="edgeStyle=orthogonalEdgeStyle;rounded=0;orthogonalLoop=1;jettySize=auto;html=1;fontSize=20;" edge="1" parent="1" source="xAghRe8UTxH26ZjEeff6-77" target="xAghRe8UTxH26ZjEeff6-79">
          <mxGeometry relative="1" as="geometry" />
        </mxCell>
        <mxCell id="xAghRe8UTxH26ZjEeff6-77" value="Data pipeline" style="sketch=0;points=[[0,0,0],[0.25,0,0],[0.5,0,0],[0.75,0,0],[1,0,0],[0,1,0],[0.25,1,0],[0.5,1,0],[0.75,1,0],[1,1,0],[0,0.25,0],[0,0.5,0],[0,0.75,0],[1,0.25,0],[1,0.5,0],[1,0.75,0]];outlineConnect=0;fontColor=#232F3E;fillColor=#8C4FFF;strokeColor=#ffffff;dashed=0;verticalLabelPosition=bottom;verticalAlign=top;align=center;html=1;fontSize=20;fontStyle=0;aspect=fixed;shape=mxgraph.aws4.resourceIcon;resIcon=mxgraph.aws4.data_pipeline;" vertex="1" parent="1">
          <mxGeometry x="980" y="970" width="85.99" height="85.99" as="geometry" />
        </mxCell>
        <mxCell id="xAghRe8UTxH26ZjEeff6-79" value="mongoDB&amp;nbsp;" style="image;aspect=fixed;perimeter=ellipsePerimeter;html=1;align=center;shadow=0;dashed=0;spacingTop=3;image=img/lib/active_directory/databases.svg;fontSize=20;" vertex="1" parent="1">
          <mxGeometry x="987.8" y="1138" width="70.4" height="69" as="geometry" />
        </mxCell>
        <mxCell id="xAghRe8UTxH26ZjEeff6-84" value="" style="rounded=1;whiteSpace=wrap;html=1;fillColor=none;strokeColor=#FFCF26;fontSize=20;" vertex="1" parent="1">
          <mxGeometry x="646.57" y="862.5" width="220" height="407.5" as="geometry" />
        </mxCell>
        <mxCell id="xAghRe8UTxH26ZjEeff6-143" value="" style="edgeStyle=orthogonalEdgeStyle;rounded=0;orthogonalLoop=1;jettySize=auto;html=1;fontSize=20;" edge="1" parent="1" source="xAghRe8UTxH26ZjEeff6-86" target="xAghRe8UTxH26ZjEeff6-84">
          <mxGeometry relative="1" as="geometry" />
        </mxCell>
        <mxCell id="xAghRe8UTxH26ZjEeff6-86" value="Payment Getaway&lt;div&gt;(Thẻ visa)&lt;/div&gt;" style="html=1;whiteSpace=wrap;strokeColor=none;fillColor=#0079D6;labelPosition=center;verticalLabelPosition=middle;verticalAlign=top;align=center;fontSize=20;outlineConnect=0;spacingTop=-6;fontColor=#FFFFFF;sketch=0;shape=mxgraph.sitemap.payment;" vertex="1" parent="1">
          <mxGeometry x="435" y="1025.5" width="145" height="81.49" as="geometry" />
        </mxCell>
        <mxCell id="xAghRe8UTxH26ZjEeff6-88" value="user" style="shape=umlLifeline;perimeter=lifelinePerimeter;whiteSpace=wrap;html=1;container=1;dropTarget=0;collapsible=0;recursiveResize=0;outlineConnect=0;portConstraint=eastwest;newEdgeStyle={&quot;curved&quot;:0,&quot;rounded&quot;:0};participant=umlActor;size=40;" vertex="1" parent="1">
          <mxGeometry x="160" y="1440" width="20" height="1540" as="geometry" />
        </mxCell>
        <mxCell id="xAghRe8UTxH26ZjEeff6-127" value="" style="html=1;points=[[0,0,0,0,5],[0,1,0,0,-5],[1,0,0,0,5],[1,1,0,0,-5]];perimeter=orthogonalPerimeter;outlineConnect=0;targetShapes=umlLifeline;portConstraint=eastwest;newEdgeStyle={&quot;curved&quot;:0,&quot;rounded&quot;:0};" vertex="1" parent="xAghRe8UTxH26ZjEeff6-88">
          <mxGeometry x="5" y="90" width="10" height="100" as="geometry" />
        </mxCell>
        <mxCell id="xAghRe8UTxH26ZjEeff6-134" value="" style="html=1;points=[[0,0,0,0,5],[0,1,0,0,-5],[1,0,0,0,5],[1,1,0,0,-5]];perimeter=orthogonalPerimeter;outlineConnect=0;targetShapes=umlLifeline;portConstraint=eastwest;newEdgeStyle={&quot;curved&quot;:0,&quot;rounded&quot;:0};" vertex="1" parent="xAghRe8UTxH26ZjEeff6-88">
          <mxGeometry x="5" y="314" width="10" height="46" as="geometry" />
        </mxCell>
        <mxCell id="xAghRe8UTxH26ZjEeff6-89" value="Frontend" style="shape=umlLifeline;perimeter=lifelinePerimeter;whiteSpace=wrap;html=1;container=1;dropTarget=0;collapsible=0;recursiveResize=0;outlineConnect=0;portConstraint=eastwest;newEdgeStyle={&quot;curved&quot;:0,&quot;rounded&quot;:0};participant=umlEntity;" vertex="1" parent="1">
          <mxGeometry x="390" y="1440" width="58" height="1510" as="geometry" />
        </mxCell>
        <mxCell id="xAghRe8UTxH26ZjEeff6-128" value="" style="html=1;points=[[0,0,0,0,5],[0,1,0,0,-5],[1,0,0,0,5],[1,1,0,0,-5]];perimeter=orthogonalPerimeter;outlineConnect=0;targetShapes=umlLifeline;portConstraint=eastwest;newEdgeStyle={&quot;curved&quot;:0,&quot;rounded&quot;:0};" vertex="1" parent="xAghRe8UTxH26ZjEeff6-89">
          <mxGeometry x="24" y="80" width="10" height="130" as="geometry" />
        </mxCell>
        <mxCell id="xAghRe8UTxH26ZjEeff6-133" value="" style="html=1;points=[[0,0,0,0,5],[0,1,0,0,-5],[1,0,0,0,5],[1,1,0,0,-5]];perimeter=orthogonalPerimeter;outlineConnect=0;targetShapes=umlLifeline;portConstraint=eastwest;newEdgeStyle={&quot;curved&quot;:0,&quot;rounded&quot;:0};" vertex="1" parent="xAghRe8UTxH26ZjEeff6-89">
          <mxGeometry x="23" y="280" width="10" height="50" as="geometry" />
        </mxCell>
        <mxCell id="xAghRe8UTxH26ZjEeff6-136" value="" style="html=1;points=[[0,0,0,0,5],[0,1,0,0,-5],[1,0,0,0,5],[1,1,0,0,-5]];perimeter=orthogonalPerimeter;outlineConnect=0;targetShapes=umlLifeline;portConstraint=eastwest;newEdgeStyle={&quot;curved&quot;:0,&quot;rounded&quot;:0};" vertex="1" parent="xAghRe8UTxH26ZjEeff6-89">
          <mxGeometry x="24" y="470" width="10" height="23" as="geometry" />
        </mxCell>
        <mxCell id="xAghRe8UTxH26ZjEeff6-90" value="Backend" style="shape=umlLifeline;perimeter=lifelinePerimeter;whiteSpace=wrap;html=1;container=1;dropTarget=0;collapsible=0;recursiveResize=0;outlineConnect=0;portConstraint=eastwest;newEdgeStyle={&quot;curved&quot;:0,&quot;rounded&quot;:0};participant=umlEntity;" vertex="1" parent="1">
          <mxGeometry x="620" y="1443" width="60" height="1520" as="geometry" />
        </mxCell>
        <mxCell id="xAghRe8UTxH26ZjEeff6-129" value="" style="html=1;points=[[0,0,0,0,5],[0,1,0,0,-5],[1,0,0,0,5],[1,1,0,0,-5]];perimeter=orthogonalPerimeter;outlineConnect=0;targetShapes=umlLifeline;portConstraint=eastwest;newEdgeStyle={&quot;curved&quot;:0,&quot;rounded&quot;:0};" vertex="1" parent="xAghRe8UTxH26ZjEeff6-90">
          <mxGeometry x="25" y="180" width="10" height="110" as="geometry" />
        </mxCell>
        <mxCell id="xAghRe8UTxH26ZjEeff6-135" value="" style="html=1;points=[[0,0,0,0,5],[0,1,0,0,-5],[1,0,0,0,5],[1,1,0,0,-5]];perimeter=orthogonalPerimeter;outlineConnect=0;targetShapes=umlLifeline;portConstraint=eastwest;newEdgeStyle={&quot;curved&quot;:0,&quot;rounded&quot;:0};" vertex="1" parent="xAghRe8UTxH26ZjEeff6-90">
          <mxGeometry x="25" y="387" width="10" height="23" as="geometry" />
        </mxCell>
        <mxCell id="xAghRe8UTxH26ZjEeff6-91" value="Payment service" style="shape=umlLifeline;perimeter=lifelinePerimeter;whiteSpace=wrap;html=1;container=1;dropTarget=0;collapsible=0;recursiveResize=0;outlineConnect=0;portConstraint=eastwest;newEdgeStyle={&quot;curved&quot;:0,&quot;rounded&quot;:0};participant=umlEntity;" vertex="1" parent="1">
          <mxGeometry x="830" y="1440" width="80" height="1520" as="geometry" />
        </mxCell>
        <mxCell id="xAghRe8UTxH26ZjEeff6-132" value="" style="html=1;points=[[0,0,0,0,5],[0,1,0,0,-5],[1,0,0,0,5],[1,1,0,0,-5]];perimeter=orthogonalPerimeter;outlineConnect=0;targetShapes=umlLifeline;portConstraint=eastwest;newEdgeStyle={&quot;curved&quot;:0,&quot;rounded&quot;:0};" vertex="1" parent="xAghRe8UTxH26ZjEeff6-91">
          <mxGeometry x="37" y="220" width="10" height="260" as="geometry" />
        </mxCell>
        <mxCell id="xAghRe8UTxH26ZjEeff6-94" value="Admin" style="shape=umlLifeline;perimeter=lifelinePerimeter;whiteSpace=wrap;html=1;container=1;dropTarget=0;collapsible=0;recursiveResize=0;outlineConnect=0;portConstraint=eastwest;newEdgeStyle={&quot;curved&quot;:0,&quot;rounded&quot;:0};participant=umlActor;size=40;" vertex="1" parent="1">
          <mxGeometry x="20" y="1440" width="20" height="1550" as="geometry" />
        </mxCell>
        <mxCell id="xAghRe8UTxH26ZjEeff6-95" value="&lt;font style=&quot;font-size: 14px;&quot;&gt;&lt;b style=&quot;&quot;&gt;ONLINE PAYMENT FLOW&lt;/b&gt;&lt;/font&gt;" style="rounded=0;whiteSpace=wrap;html=1;fillColor=#fad9d5;strokeColor=#ae4132;" vertex="1" parent="1">
          <mxGeometry x="-10" y="1500" width="201.25" height="20" as="geometry" />
        </mxCell>
        <mxCell id="xAghRe8UTxH26ZjEeff6-96" value="Truy cập web" style="html=1;verticalAlign=bottom;endArrow=block;curved=0;rounded=0;" edge="1" parent="1">
          <mxGeometry width="80" relative="1" as="geometry">
            <mxPoint x="169.59090909090924" y="1530" as="sourcePoint" />
            <mxPoint x="410" y="1530" as="targetPoint" />
          </mxGeometry>
        </mxCell>
        <mxCell id="xAghRe8UTxH26ZjEeff6-104" value="Return Payment URL" style="html=1;verticalAlign=bottom;endArrow=open;dashed=1;endSize=8;curved=0;rounded=0;" edge="1" parent="1">
          <mxGeometry relative="1" as="geometry">
            <mxPoint x="870" y="1700" as="sourcePoint" />
            <mxPoint x="660" y="1700" as="targetPoint" />
          </mxGeometry>
        </mxCell>
        <mxCell id="xAghRe8UTxH26ZjEeff6-105" value="Return Payment URL" style="html=1;verticalAlign=bottom;endArrow=open;dashed=1;endSize=8;curved=0;rounded=0;" edge="1" parent="1">
          <mxGeometry relative="1" as="geometry">
            <mxPoint x="645" y="1730" as="sourcePoint" />
            <mxPoint x="425" y="1730" as="targetPoint" />
          </mxGeometry>
        </mxCell>
        <mxCell id="xAghRe8UTxH26ZjEeff6-107" value="Hoàn tất thanh toán" style="html=1;verticalAlign=bottom;endArrow=block;curved=0;rounded=0;" edge="1" parent="1">
          <mxGeometry width="80" relative="1" as="geometry">
            <mxPoint x="166.32" y="1800" as="sourcePoint" />
            <mxPoint x="866.57" y="1800" as="targetPoint" />
          </mxGeometry>
        </mxCell>
        <mxCell id="xAghRe8UTxH26ZjEeff6-108" value="Thông báo thanh toán thành công" style="html=1;verticalAlign=bottom;endArrow=open;dashed=1;endSize=8;curved=0;rounded=0;" edge="1" parent="1">
          <mxGeometry relative="1" as="geometry">
            <mxPoint x="867.8249999999995" y="1840" as="sourcePoint" />
            <mxPoint x="660" y="1840" as="targetPoint" />
          </mxGeometry>
        </mxCell>
        <mxCell id="xAghRe8UTxH26ZjEeff6-109" value="Chuyển hướng đến My Oder" style="html=1;verticalAlign=bottom;endArrow=open;dashed=1;endSize=8;curved=0;rounded=0;" edge="1" parent="1">
          <mxGeometry relative="1" as="geometry">
            <mxPoint x="875.62" y="1920" as="sourcePoint" />
            <mxPoint x="424.37" y="1920" as="targetPoint" />
          </mxGeometry>
        </mxCell>
        <mxCell id="xAghRe8UTxH26ZjEeff6-111" value="Thay đổi mã xác thực -&amp;gt; mã thông báo&amp;nbsp;&lt;div&gt;truy cập&lt;/div&gt;" style="html=1;verticalAlign=bottom;endArrow=block;curved=0;rounded=0;" edge="1" parent="1">
          <mxGeometry width="80" relative="1" as="geometry">
            <mxPoint x="415.73666666666696" y="2000.0000000000005" as="sourcePoint" />
            <mxPoint x="646.57" y="2000.0000000000005" as="targetPoint" />
          </mxGeometry>
        </mxCell>
        <mxCell id="xAghRe8UTxH26ZjEeff6-112" value="" style="curved=1;endArrow=classic;html=1;rounded=0;" edge="1" parent="1">
          <mxGeometry width="50" height="50" relative="1" as="geometry">
            <mxPoint x="655.3347107438017" y="2013" as="sourcePoint" />
            <mxPoint x="655" y="2023.0000000000005" as="targetPoint" />
            <Array as="points">
              <mxPoint x="675" y="2013.0000000000005" />
              <mxPoint x="675" y="2023.0000000000005" />
            </Array>
          </mxGeometry>
        </mxCell>
        <mxCell id="xAghRe8UTxH26ZjEeff6-113" value="Kiểm tra thanh&amp;nbsp;&lt;div&gt;toán đã thành công chưa&lt;/div&gt;" style="text;html=1;align=center;verticalAlign=middle;resizable=0;points=[];autosize=1;strokeColor=none;fillColor=none;" vertex="1" parent="1">
          <mxGeometry x="646.57" y="1973" width="160" height="40" as="geometry" />
        </mxCell>
        <mxCell id="xAghRe8UTxH26ZjEeff6-114" value="Trả về mã thông báo truy cập" style="html=1;verticalAlign=bottom;endArrow=open;dashed=1;endSize=8;curved=0;rounded=0;" edge="1" parent="1" target="xAghRe8UTxH26ZjEeff6-140">
          <mxGeometry relative="1" as="geometry">
            <mxPoint x="646.57" y="2090" as="sourcePoint" />
            <mxPoint x="416.043684210526" y="2090" as="targetPoint" />
          </mxGeometry>
        </mxCell>
        <mxCell id="xAghRe8UTxH26ZjEeff6-115" value="" style="curved=1;endArrow=classic;html=1;rounded=0;" edge="1" parent="1">
          <mxGeometry width="50" height="50" relative="1" as="geometry">
            <mxPoint x="424.3347107438017" y="2115" as="sourcePoint" />
            <mxPoint x="424" y="2125.0000000000005" as="targetPoint" />
            <Array as="points">
              <mxPoint x="444" y="2115.0000000000005" />
              <mxPoint x="444" y="2125.0000000000005" />
            </Array>
          </mxGeometry>
        </mxCell>
        <mxCell id="xAghRe8UTxH26ZjEeff6-116" value="Lưu mã thông báo&lt;div&gt;&amp;nbsp;truy cập&lt;/div&gt;" style="text;html=1;align=center;verticalAlign=middle;resizable=0;points=[];autosize=1;strokeColor=none;fillColor=none;" vertex="1" parent="1">
          <mxGeometry x="432" y="2100" width="120" height="40" as="geometry" />
        </mxCell>
        <mxCell id="xAghRe8UTxH26ZjEeff6-117" value="Chờ phản hồi" style="html=1;verticalAlign=bottom;endArrow=open;dashed=1;endSize=8;curved=0;rounded=0;" edge="1" parent="1" target="xAghRe8UTxH26ZjEeff6-140">
          <mxGeometry relative="1" as="geometry">
            <mxPoint x="650.526315789474" y="2180" as="sourcePoint" />
            <mxPoint x="420" y="2180" as="targetPoint" />
          </mxGeometry>
        </mxCell>
        <mxCell id="xAghRe8UTxH26ZjEeff6-118" value="" style="curved=1;endArrow=classic;html=1;rounded=0;" edge="1" parent="1">
          <mxGeometry width="50" height="50" relative="1" as="geometry">
            <mxPoint x="425.3347107438017" y="2205" as="sourcePoint" />
            <mxPoint x="425" y="2215.0000000000005" as="targetPoint" />
            <Array as="points">
              <mxPoint x="445" y="2205.0000000000005" />
              <mxPoint x="445" y="2215.0000000000005" />
            </Array>
          </mxGeometry>
        </mxCell>
        <mxCell id="xAghRe8UTxH26ZjEeff6-119" value="Chờ trước&amp;nbsp;&lt;div&gt;khi thử lại&lt;/div&gt;" style="text;html=1;align=center;verticalAlign=middle;resizable=0;points=[];autosize=1;strokeColor=none;fillColor=none;" vertex="1" parent="1">
          <mxGeometry x="435" y="2180" width="80" height="40" as="geometry" />
        </mxCell>
        <mxCell id="xAghRe8UTxH26ZjEeff6-120" value="loop" style="shape=umlFrame;whiteSpace=wrap;html=1;pointerEvents=0;dashed=1;" vertex="1" parent="1">
          <mxGeometry x="354" y="1940" width="466" height="330" as="geometry" />
        </mxCell>
        <mxCell id="xAghRe8UTxH26ZjEeff6-122" value="[Thử lại đến khi thanh toán hoặc đạt số lần thử tối đa]" style="text;html=1;align=center;verticalAlign=middle;resizable=0;points=[];autosize=1;strokeColor=none;fillColor=none;" vertex="1" parent="1">
          <mxGeometry x="432" y="1940" width="310" height="30" as="geometry" />
        </mxCell>
        <mxCell id="xAghRe8UTxH26ZjEeff6-123" value="[Thanh toán thành công]" style="text;html=1;align=center;verticalAlign=middle;resizable=0;points=[];autosize=1;strokeColor=none;fillColor=none;" vertex="1" parent="1">
          <mxGeometry x="435" y="2038" width="150" height="30" as="geometry" />
        </mxCell>
        <mxCell id="xAghRe8UTxH26ZjEeff6-137" value="" style="html=1;points=[[0,0,0,0,5],[0,1,0,0,-5],[1,0,0,0,5],[1,1,0,0,-5]];perimeter=orthogonalPerimeter;outlineConnect=0;targetShapes=umlLifeline;portConstraint=eastwest;newEdgeStyle={&quot;curved&quot;:0,&quot;rounded&quot;:0};" vertex="1" parent="1">
          <mxGeometry x="414" y="1990" width="10" height="23" as="geometry" />
        </mxCell>
        <mxCell id="xAghRe8UTxH26ZjEeff6-138" value="" style="html=1;points=[[0,0,0,0,5],[0,1,0,0,-5],[1,0,0,0,5],[1,1,0,0,-5]];perimeter=orthogonalPerimeter;outlineConnect=0;targetShapes=umlLifeline;portConstraint=eastwest;newEdgeStyle={&quot;curved&quot;:0,&quot;rounded&quot;:0};" vertex="1" parent="1">
          <mxGeometry x="645" y="1990" width="10" height="40" as="geometry" />
        </mxCell>
        <mxCell id="xAghRe8UTxH26ZjEeff6-121" value="alt" style="shape=umlFrame;whiteSpace=wrap;html=1;pointerEvents=0;dashed=1;" vertex="1" parent="1">
          <mxGeometry x="370" y="2040" width="310" height="200" as="geometry" />
        </mxCell>
        <mxCell id="xAghRe8UTxH26ZjEeff6-139" value="" style="html=1;points=[[0,0,0,0,5],[0,1,0,0,-5],[1,0,0,0,5],[1,1,0,0,-5]];perimeter=orthogonalPerimeter;outlineConnect=0;targetShapes=umlLifeline;portConstraint=eastwest;newEdgeStyle={&quot;curved&quot;:0,&quot;rounded&quot;:0};" vertex="1" parent="1">
          <mxGeometry x="645" y="2080" width="10" height="110" as="geometry" />
        </mxCell>
        <mxCell id="xAghRe8UTxH26ZjEeff6-140" value="" style="html=1;points=[[0,0,0,0,5],[0,1,0,0,-5],[1,0,0,0,5],[1,1,0,0,-5]];perimeter=orthogonalPerimeter;outlineConnect=0;targetShapes=umlLifeline;portConstraint=eastwest;newEdgeStyle={&quot;curved&quot;:0,&quot;rounded&quot;:0};" vertex="1" parent="1">
          <mxGeometry x="415" y="2080" width="10" height="140" as="geometry" />
        </mxCell>
        <mxCell id="xAghRe8UTxH26ZjEeff6-144" value="&lt;b&gt;TÍNH NĂNG NGƯỜI DÙNG&amp;nbsp;&lt;/b&gt;" style="rounded=0;whiteSpace=wrap;html=1;fillColor=#fad9d5;strokeColor=#ae4132;" vertex="1" parent="1">
          <mxGeometry x="-0.6200000000000045" y="2318" width="201.25" height="20" as="geometry" />
        </mxCell>
      </root>
    </mxGraphModel>
  </diagram>
</mxfile>
